HIERARCHY
ROOT Model_Hips
{
	OFFSET 0.000000 96.915077 0.000000
	CHANNELS 6 Xposition Yposition Zposition Xrotation Yrotation Zrotation
	JOINT Model_Spine
	{
		OFFSET 0.000000 11.137703 -1.289900
		CHANNELS 3 Xrotation Yrotation Zrotation
		JOINT Model_Spine1
		{
			OFFSET 0.000000 12.993942 -1.504922
			CHANNELS 3 Xrotation Yrotation Zrotation
			JOINT Model_Spine2
			{
				OFFSET 0.000000 14.850220 -1.719911
				CHANNELS 3 Xrotation Yrotation Zrotation
				JOINT Model_Neck
				{
					OFFSET 0.000000 16.706543 -1.934903
					CHANNELS 3 Xrotation Yrotation Zrotation
					JOINT Model_Head
					{
						OFFSET 0.000000 10.471298 2.002100
						CHANNELS 3 Xrotation Yrotation Zrotation
						JOINT Model_HeadTop_End
						{
							OFFSET 0.000000 20.842606 3.985100
							CHANNELS 3 Xrotation Yrotation Zrotation
							End Site
							{
								OFFSET 0.000000 21.220154 0.000000
							}
						}
					}
				}
				JOINT Model_LeftShoulder
				{
					OFFSET 7.008500 14.768600 -1.919946
					CHANNELS 3 Xrotation Yrotation Zrotation
					JOINT Model_LeftArm
					{
						OFFSET 14.126271 -3.718048 0.029937
						CHANNELS 3 Xrotation Yrotation Zrotation
						JOINT Model_LeftForeArm
						{
							OFFSET 28.282801 0.000000 0.000000
							CHANNELS 3 Xrotation Yrotation Zrotation
							JOINT Model_LeftHand
							{
								OFFSET 26.204689 0.000000 0.000000
								CHANNELS 3 Xrotation Yrotation Zrotation
								End Site
								{
									OFFSET 26.204704 0.000000 0.000000
								}
							}
						}
					}
				}
				JOINT Model_RightShoulder
				{
					OFFSET -7.008500 14.768555 -1.949840
					CHANNELS 3 Xrotation Yrotation Zrotation
					JOINT Model_RightArm
					{
						OFFSET -14.126281 -3.718018 -0.029932
						CHANNELS 3 Xrotation Yrotation Zrotation
						JOINT Model_RightForeArm
						{
							OFFSET -28.283798 0.000000 -0.000001
							CHANNELS 3 Xrotation Yrotation Zrotation
							JOINT Model_RightHand
							{
								OFFSET -26.204193 0.000000 -0.000001
								CHANNELS 3 Xrotation Yrotation Zrotation
								End Site
								{
									OFFSET -26.204208 0.000000 -0.000001
								}
							}
						}
					}
				}
			}
		}
	}
	JOINT Model_LeftUpLeg
	{
		OFFSET 8.327700 -6.193199 -0.402800
		CHANNELS 3 Xrotation Yrotation Zrotation
		JOINT Model_LeftLeg
		{
			OFFSET 0.735802 -42.108742 -0.610721
			CHANNELS 3 Xrotation Yrotation Zrotation
			JOINT Model_LeftFoot
			{
				OFFSET -0.735806 -36.833748 -0.172876
				CHANNELS 3 Xrotation Yrotation Zrotation
				JOINT Model_LeftToeBase
				{
					OFFSET -0.565857 -11.977769 16.297714
					CHANNELS 3 Xrotation Yrotation Zrotation
					JOINT Model_LeftToe_End
					{
						OFFSET -0.111712 -0.312793 7.857784
						CHANNELS 3 Xrotation Yrotation Zrotation
						End Site
						{
							OFFSET -0.111712 -0.312793 7.857784
						}
					}
				}
			}
		}
	}
	JOINT Model_RightUpLeg
	{
		OFFSET -8.327700 -6.193199 -0.516500
		CHANNELS 3 Xrotation Yrotation Zrotation
		JOINT Model_RightLeg
		{
			OFFSET -0.735785 -42.108738 -0.434061
			CHANNELS 3 Xrotation Yrotation Zrotation
			JOINT Model_RightFoot
			{
				OFFSET 0.735776 -36.833748 -0.021630
				CHANNELS 3 Xrotation Yrotation Zrotation
				JOINT Model_RightToeBase
				{
					OFFSET 0.565817 -11.977745 15.903093
					CHANNELS 3 Xrotation Yrotation Zrotation
					JOINT Model_RightToe_End
					{
						OFFSET 0.111702 -0.312791 7.811342
						CHANNELS 3 Xrotation Yrotation Zrotation
						End Site
						{
							OFFSET 0.111702 -0.312791 7.811342
						}
					}
				}
			}
		}
	}
}
MOTION
Frames: 15
Frame Time: 0.033333
-0.231702 93.727112 1.647629 9.895218 -0.585975 3.035250 8.776773 3.130800 -1.364579 1.602654 1.233846 0.809978 1.612073 1.226179 0.796964 -0.717361 -0.365289 -0.088596 -4.507277 -0.360061 -0.112548 0.000001 0.000000 0.000000 2.578855 4.580133 -8.079599 14.898219 -22.282724 -57.697606 -0.000018 -40.211048 -0.000012 0.000000 -0.000000 0.000000 2.557412 5.288811 5.269833 -21.322456 18.285289 62.204213 -0.000008 49.049508 0.000018 0.000000 0.000000 -0.000000 -29.815278 0.349091 -1.814357 77.741561 6.331459 -0.177052 -1.181654 0.620770 -9.213336 -5.639020 -0.000002 -0.000001 0.000001 -0.000001 0.000000 -1.019457 -5.306855 0.623029 25.713705 7.008507 -3.426489 -22.204067 0.277231 -3.462610 -10.891742 0.050400 -0.495500 0.000000 0.000000 0.000000 
0.032387 95.581818 8.098980 10.438567 -2.206716 4.953700 8.370634 4.341981 -3.463950 1.210345 1.954366 0.070956 1.219613 1.947316 0.045126 -0.616087 -0.392869 0.235406 -4.416680 -0.360060 -0.200246 -0.000001 0.000000 -0.000000 2.732796 7.737155 -8.138357 19.131881 -21.314104 -55.521669 0.000008 -43.812115 -0.000009 -0.000003 0.000000 0.000000 3.095353 7.051795 3.390193 -20.265960 22.402672 60.832991 -0.000003 56.378922 -0.000005 -0.000000 -0.000003 0.000002 -33.960015 1.691884 -3.502058 71.323458 8.874373 -1.450662 -3.479337 2.473632 -10.262767 -2.492132 -0.000002 0.000001 0.000004 0.000000 -0.000001 7.992109 -8.049743 -0.852712 11.286563 9.840654 -4.960991 -10.599497 1.058433 0.384391 -15.533858 0.240148 -2.405634 0.000001 -0.000000 0.000000 
0.281795 97.190643 14.712980 11.436518 -3.195640 6.029412 8.013191 5.076836 -4.754989 0.713766 2.424510 -0.355695 0.719248 2.416418 -0.395449 -0.762505 -0.296490 0.396427 -4.566223 -0.348951 -0.331093 0.000001 0.000000 -0.000000 3.131393 11.624743 -9.260063 21.041202 -19.689248 -54.307538 0.000003 -47.675438 0.000002 -0.000002 -0.000000 0.000001 3.910294 8.125704 1.528773 -17.776744 27.024171 58.218682 0.000083 64.241296 -0.000068 -0.000000 0.000000 -0.000001 -37.177922 2.400678 -4.400825 60.847970 9.303877 -2.849930 -5.142900 5.371665 -9.086560 -0.062233 0.000001 0.000002 0.000002 -0.000001 0.000000 6.911395 -10.824950 -3.205267 14.051729 7.932323 -4.594103 -0.693941 2.730696 6.912970 -24.192697 1.447408 -6.807807 0.000000 -0.000000 0.000000 
0.479605 98.491295 21.777838 12.197042 -3.655286 6.444678 7.568857 5.228364 -5.524096 0.381664 2.600577 -0.811039 0.379495 2.589950 -0.855552 -0.936494 -0.244214 0.920480 -4.736263 -0.328130 -0.474762 0.000000 0.000000 0.000000 3.370585 15.404074 -9.402806 21.822333 -17.879700 -53.954844 -0.000003 -51.595037 0.000013 -0.000000 -0.000001 -0.000000 4.649503 9.464878 0.592795 -14.266556 31.042677 55.460685 -0.000062 71.489329 0.000077 -0.000001 -0.000002 -0.000002 -37.157414 2.461864 -4.963210 45.160726 9.433023 -3.655183 -3.605137 7.492273 -8.614470 0.909800 0.000005 -0.000004 -0.000000 -0.000002 0.000001 5.645906 -12.160437 -4.699323 17.156906 4.261797 -3.843723 12.863182 3.421415 6.682690 -33.357001 2.053656 -4.305747 0.000001 -0.000001 0.000000 
0.509968 99.638405 29.607851 12.883403 -3.102976 5.743664 6.417386 5.028354 -5.159233 0.628811 2.516713 -0.981868 0.621109 2.510160 -1.010667 -1.078154 -0.171929 1.460485 -4.863312 -0.296974 -0.631963 -0.000002 -0.000000 -0.000000 3.530895 18.099586 -9.491317 21.643198 -17.251502 -53.184047 -0.000009 -55.354585 -0.000017 -0.000000 -0.000001 0.000002 5.137448 10.836979 0.071497 -9.410707 34.217212 51.675166 -0.000028 79.526037 0.000041 0.000001 -0.000002 -0.000004 -33.396248 1.842829 -5.012325 24.723319 9.544985 -3.111730 0.267183 7.722123 -10.139148 0.179751 -0.000002 -0.000001 0.000000 0.000000 0.000000 7.517070 -12.141843 -3.798272 17.914174 1.667275 -5.455553 20.396144 3.486192 9.640041 -15.942590 0.606383 -2.632772 -0.000004 0.000001 -0.000001 
0.341749 99.610390 38.255577 12.717784 -1.489501 4.231708 4.973942 4.546087 -4.034731 1.484909 2.251859 -0.719164 1.473157 2.259189 -0.716335 -1.073774 -0.068377 1.809077 -4.834902 -0.244188 -0.859462 0.000000 0.000000 -0.000000 3.709178 18.216869 -10.058205 21.380092 -16.849692 -51.846665 -0.000012 -58.721356 -0.000007 -0.000001 0.000001 -0.000000 5.181664 11.393815 -0.004463 -3.110646 36.171015 47.372761 -0.000356 87.798933 0.000310 0.000002 0.000000 0.000001 -28.912669 1.638113 -4.670121 8.431485 9.345014 -2.019583 6.882635 6.023407 -12.910337 -0.092064 0.000002 -0.000007 -0.000000 0.000001 -0.000002 10.190298 -11.153450 -1.399773 22.918876 -2.621163 -7.342061 19.377609 -0.014003 15.521649 -3.018318 0.000004 -0.000006 0.000005 0.000000 -0.000002 
0.102567 98.865417 46.763279 12.763909 0.739884 3.298987 4.256873 3.599709 -3.597741 2.096685 1.838385 -0.546996 2.089210 1.823056 -0.621981 -0.888635 -0.003753 2.286440 -4.617669 -0.204053 -0.972691 0.000001 -0.000001 0.000000 3.513327 16.786892 -9.835150 20.284786 -17.746078 -49.815367 -0.000016 -61.551950 -0.000032 0.000003 -0.000000 0.000000 4.674085 10.925147 0.893663 3.493211 37.097851 44.451219 0.000088 93.882869 -0.000064 -0.000000 0.000001 -0.000000 -28.010911 2.233052 -4.786433 6.651176 9.400009 -2.217331 8.252905 6.012614 -13.173772 0.456802 0.000008 -0.000000 -0.000000 -0.000002 0.000001 10.116003 -9.694016 1.189903 33.438499 -2.590978 -8.104954 16.514105 -6.771826 17.533637 -5.758110 -0.000004 0.000015 0.000001 0.000000 -0.000002 
-0.112814 97.651291 54.394485 12.819584 2.902946 2.996976 5.104989 2.518270 -3.882558 1.932965 1.432793 -0.575591 1.943868 1.326835 -0.902060 -0.838803 0.091739 2.832742 -4.531815 -0.183463 -0.938791 0.000001 0.000000 0.000000 3.068288 14.473092 -9.074000 18.768177 -19.974110 -46.965846 -0.000006 -63.131657 -0.000002 -0.000001 -0.000000 0.000000 3.944563 9.672332 1.979919 9.569601 37.161604 43.214679 0.000051 96.759574 -0.000066 -0.000003 -0.000001 0.000002 -28.363569 3.478918 -5.664171 13.728611 9.041953 -3.395736 5.779228 3.554607 -6.364323 -2.335218 -0.080157 2.161029 -0.000000 0.000000 -0.000001 6.553606 -9.461990 1.949237 47.733190 -3.231703 -7.102627 14.662917 -7.772780 14.188338 -7.646707 -0.000010 0.000004 0.000001 -0.000001 -0.000000 
-0.167622 95.738853 62.337650 12.622007 3.460849 3.145584 5.984123 1.359324 -4.717417 1.592559 1.282137 -0.686188 1.622898 1.060146 -1.321999 -0.829013 0.224306 3.429386 -4.488556 -0.161484 -0.850322 0.000001 -0.000000 -0.000000 2.593674 11.445958 -8.348490 16.884076 -22.078884 -44.349228 -0.000006 -62.801479 -0.000002 0.000001 0.000002 0.000000 3.072945 7.838600 3.372532 15.556085 37.257524 42.635619 -0.000000 95.653077 -0.000010 0.000000 -0.000001 -0.000001 -28.759864 3.140307 -6.613186 27.283648 9.495494 -3.907136 -8.162922 2.070364 -0.113833 -2.021703 -0.028217 1.288986 -0.000000 -0.000003 0.000000 0.262737 -9.754659 0.543337 64.709417 -3.029392 -5.961208 11.843144 -8.709415 13.366292 -6.147384 0.000005 -0.000006 0.000001 0.000000 -0.000001 
-0.085822 94.182304 69.530746 13.120783 2.947724 3.821776 6.256041 0.052861 -5.936828 1.602050 0.998048 -0.749135 1.649798 0.683583 -1.652612 -1.112694 0.451182 3.833825 -4.716994 -0.108122 -0.793921 0.000002 -0.000000 -0.000000 2.277641 7.950237 -8.617083 12.042022 -23.310362 -42.891966 -0.000009 -61.138266 -0.000000 0.000001 0.000001 -0.000001 2.113146 5.030981 5.531237 19.259779 37.281201 42.763633 0.000369 89.205160 0.000060 -0.000001 -0.000002 -0.000002 -28.818245 2.424003 -7.229830 37.070695 8.675483 -4.245148 -16.751179 4.323105 -0.050775 -3.342431 -0.041228 1.558903 0.000000 -0.000002 0.000000 -9.290498 -9.448211 -1.501242 79.144715 -4.595657 -5.875576 8.187302 -16.278359 13.174441 -5.302600 0.000004 0.000002 0.000000 -0.000002 -0.000000 
-0.095302 93.394012 75.991432 13.214907 3.396453 3.587419 6.376207 -1.314928 -6.248731 1.622336 0.236539 -0.577953 1.688788 -0.126088 -1.620266 -1.487442 0.737042 4.006987 -5.123677 -0.002153 -0.777387 0.000002 0.000000 -0.000000 1.807121 3.320388 -8.609707 6.083595 -23.905039 -43.892923 -0.000005 -60.873071 0.000001 -0.000001 0.000001 0.000001 1.290424 1.456909 7.331452 19.484849 35.799812 45.038155 0.000025 78.219483 0.000003 0.000002 -0.000003 0.000003 -25.457274 0.341343 -7.478238 39.614018 9.778836 -4.518387 -21.763368 4.481661 -0.814511 -4.344628 -0.036241 1.461492 0.000000 0.000000 0.000000 -19.923877 -8.519210 -2.322371 89.783977 -4.903181 -5.259743 4.189635 -18.361662 10.851671 -1.030594 -0.000014 0.000008 0.000000 -0.000001 0.000001 
0.061664 93.897736 82.834076 13.680076 4.955711 2.271601 6.410494 -2.733353 -5.128459 1.441872 -0.702068 -0.189594 1.519581 -1.045703 -1.168041 -1.647013 1.038809 3.926149 -5.277533 0.119539 -0.798439 0.000001 -0.000000 -0.000000 1.276437 -1.045285 -7.572787 1.565353 -26.614691 -47.128821 0.000015 -62.774056 0.000031 0.000004 0.000000 -0.000002 0.650680 -2.467458 9.259688 20.067775 30.843027 47.399300 0.000037 69.865295 0.000000 0.000003 0.000001 -0.000002 -18.783889 -1.337086 -6.813710 34.197989 9.934054 -3.614740 -22.317319 3.666411 -1.006910 -5.460412 -0.035646 1.450003 0.000000 0.000000 -0.000000 -30.701444 -7.716539 -2.667535 93.681898 -6.079104 -4.563958 -0.426044 -14.247582 11.824375 3.569566 -0.000002 0.000000 0.000001 0.000001 0.000002 
0.307472 95.042908 89.724571 14.787829 6.375430 0.387556 6.490860 -4.083012 -2.997587 0.854788 -1.461494 0.271040 0.925695 -1.730565 -0.469141 -1.428142 1.346546 3.551594 -5.038935 0.214456 -0.836014 -0.000000 0.000000 -0.000000 0.890795 -4.700971 -5.987788 -2.407512 -29.211742 -52.632939 0.000017 -66.052246 0.000015 0.000001 0.000000 0.000001 0.216639 -6.656949 10.656753 23.123225 24.523396 48.897253 0.000022 67.261961 0.000009 0.000003 0.000002 -0.000000 -10.446143 -0.838355 -5.369622 23.092345 8.029014 -1.270510 -17.760869 2.887522 -0.255555 -9.225429 -0.035941 0.593314 0.000000 -0.000001 -0.000000 -39.554315 -7.432188 -2.137604 89.776983 -6.263660 -3.959105 -1.262284 -11.549003 7.393110 -0.708461 0.000001 -0.000001 -0.000001 0.000001 -0.000001 
0.465498 96.618690 96.902451 15.385916 7.482540 -1.648126 6.708319 -5.083051 -0.524688 0.084110 -2.074086 0.737179 0.134861 -2.234629 0.317538 -1.031504 1.625211 3.058064 -4.648166 0.274379 -0.797722 0.000000 -0.000000 0.000000 0.771099 -8.123033 -3.870015 -4.625462 -28.633647 -58.118817 0.000003 -70.593687 0.000021 -0.000001 0.000001 -0.000001 -0.215021 -10.574150 10.749490 27.067068 19.689940 50.566120 0.000034 66.630456 -0.000032 0.000002 -0.000001 0.000000 -2.696873 1.746137 -3.075552 13.068248 5.891977 0.931277 -7.817491 2.342983 -2.184878 -17.708085 -0.028744 0.202076 0.000000 0.000001 0.000000 -45.195191 -7.273094 -1.021715 80.399277 -6.976069 -3.476470 -1.326253 -11.793624 3.188423 -3.996111 -0.000010 0.000005 0.000003 0.000001 0.000000 
0.425619 98.023514 104.283051 16.132968 7.955628 -3.580257 6.850424 -6.075473 1.845686 -0.740829 -2.764466 1.160177 -0.713510 -2.809896 1.052527 -0.766364 1.888793 2.519239 -4.400004 0.329466 -0.655395 0.000002 0.000000 -0.000000 0.958195 -10.201946 -1.660906 -5.143547 -26.370718 -61.471996 -0.000043 -76.114972 -0.000022 0.000001 0.000001 0.000001 -0.650818 -13.226459 10.541091 30.651140 16.497511 51.514632 0.000047 66.670815 -0.000053 0.000000 0.000001 -0.000001 -1.786650 6.665782 0.802900 14.252895 2.020538 1.039564 3.485684 1.347295 -4.730823 -31.877855 -0.083692 0.253757 0.000000 -0.000002 -0.000000 -48.744871 -6.496511 0.174887 67.125726 -7.794034 -3.236739 -2.133620 -13.398294 5.808193 -1.522744 -0.000008 -0.000001 -0.000001 0.000002 0.000000 
